<svg xmlns="http://www.w3.org/2000/svg" viewBox="0 0 150 150">
  <defs/>
  <circle cx="75" cy="75" r="75"/>
  <g fill="#fff">
    <path d="M82.5 79.6a10.6 10.6 0 00-6.4 7.7 1.2 1.2 0 102.4.6 8 8 0 015-6 1.2 1.2 0 00-1-2.3zm1.7-9.6v1.4a1 1 0 001.9 0V70a14.5 14.5 0 01-2 0z"/>
    <path d="M119.8 66.7a1.2 1.2 0 00-1.7-.7l-2.3 1.1h-11.4c.2.1.3.3.3.4v.9c-.1.4-1.3.8-2.8.9a14.6 14.6 0 01-1.9 0c-.7 0-1.2-.1-1.6-.3l-.4-1-.2-.4v-.2l-.1-.3a12 12 0 00-2.4-4 7.6 7.6 0 00-3.4-2.3l1.7-6.1v-.1c.2-.7.6-1.3 1.3-1.7s1.3-.6 2-.4c.7.1 1.3.6 1.7 1.2.4.6.6 1.3.4 2L97.3 63a3.9 3.9 0 00.5 3 3.8 3.8 0 001.8 1.5 3.8 3.8 0 001.5.2 3.8 3.8 0 002-.6c.2 0 .3-.2.5-.3a3.9 3.9 0 001.3-2.1l1.8-7.4a10.4 10.4 0 00-1.5-8 10.4 10.4 0 00-6.6-4.5 10.4 10.4 0 00-7.9 1.5 10.7 10.7 0 00-1.2.9v-3c0-3.4-1-6.3-2.8-8.4a11 11 0 00-8.4-3.6A11 11 0 0070 36a11.9 11.9 0 00-2.7 5.6 11.2 11.2 0 00-4 1.3 11 11 0 00-5.4 9.8c0 4 1.7 7.2 4.8 9.4a6.5 6.5 0 00-2 1.8c-.7.9-1.2 2-1.5 3.2h-7.7c-2.8-.5-12-2.8-14-13.2v-.3a1.2 1.2 0 00-1.3-1.2 1.2 1.2 0 00-.1 0c-1.5.1-3.4 1.2-4.9 6.1a46 46 0 00-1.6 12.7v.2c0 4.8.6 9.3 1.6 12.7 1.5 4.9 3.4 6 4.9 6h.1c.7 0 1.2-.4 1.3-1.1v-.3C39.5 78 49.3 75.4 53 75.2h1a11.4 11.4 0 00-4 8.7c0 6.3 5.2 11.4 11.5 11.4h3.2a97.2 97.2 0 01.5 5.3c-.8.5-1 1.1-1 1.6v.6a41 41 0 010 11.1c0 .6.2 1.1.6 1.6 1.5 1.7 6.5 2.3 10.3 2.3 3.3 0 9.2-.5 10.6-2.5.3-.4.4-.9.3-1.4a48.3 48.3 0 000-2 46 46 0 010-9.4v-.2c0-.6-.2-1.2-1-1.8 0-1.8.2-3.6.5-4.3l.8-1.1h20.2a12 12 0 0012.1-12 12 12 0 00-2.2-7l1.5.8a1.2 1.2 0 001.8-.6c.4-1 .7-2.9.7-5 0-1.8-.2-3.5-.6-4.6zM89.4 51.9v-.7a8 8 0 012.7-2.8 8 8 0 016-1.2 8 8 0 015 3.5 8 8 0 011.2 6l-1.9 7.4a1.4 1.4 0 01-1.6 1.1 1.4 1.4 0 01-1.1-1.6l1.8-7.4a5.2 5.2 0 00-.7-4 5.2 5.2 0 00-3.3-2.2 5.2 5.2 0 00-3.9.7 5.2 5.2 0 00-2.2 3.2l-1.8 6.3h-.4l.2-8a1.8 1.8 0 000-.3zm-.2 12.5v-1.7l1.2.1h.2c1.1.3 2.1.9 3 1.8 2.2 2.5 2.9 6.8 2.7 8.9 0 0-.4 5.7-4.2 5.7a4.4 4.4 0 01-.3 0c-2.5 0-3.6-2-4-3.5H91c.4 0 1.6-.2 1.9-2.4 0-1.7-.4-4.8-1.8-6.3-.6-.6-1.2-1.2-2-1.2a1.8 1.8 0 00-.3 0c.2-.4.3-.9.3-1.4zm9.7 15.9l3.8-1.9h2.6a4.4 4.4 0 014.4 4.4 4.4 4.4 0 01-4.4 4.4H91.7a155.6 155.6 0 00.5-2.8c.2-.6 1-1.2 2.3-2 .3 0 3.2-1.5 4.4-2.1zm-10-11.9v.9l-.4.4h1.4c.4 1 .6 2.4.6 3.5v.1h-5.8L70 73l-3.6-.1c.5-.7.8-1.6.8-2.5l.1-.9H76v1.9a1 1 0 102 0v-1.9h3.7c-.2 0-.3-.2-.4-.4v-.6c0-.3.5-.6 1.2-.7l.5.2a4.2 4.2 0 004.5-.3c.8.2 1.4.4 1.4.7zm-19.6-8.1v-2.6l.2-8a4 4 0 011.5.5c1.3.8 2 2.1 1.9 4V67h-.4c0-1-.4-2.2-.8-2.9a5 5 0 00-2.4-2.4v-1.4zm4 7.2c0-.3.4-.5 1-.7l.5.3.2.2.3.1a4.1 4.1 0 004 .5l.8-.4.1-.1.3-.2c.2 0 .2.2.2.3v.8c0 .3-.4.5-1 .6-.4.2-1 .3-1.8.3a14.5 14.5 0 01-1.9 0c-1.6-.1-2.8-.5-2.8-.9v-.8zm6-3.7c.2.4 0 .9-.2 1.2a1.7 1.7 0 01-2.4.4l-.2-.1a12.8 12.8 0 00-1.1-.8v-3.6c1.4.6 2.4 1.1 3.3 1.8.4.2.6.6.7 1zm-3.7-20.5c.3-1.3 1.2-2.5 2.7-2.5 1 0 2.7 0 2.7 3.4l-.1 6.7a12 12 0 00-5.3-7.6zM72 37.6a8.2 8.2 0 016.4-2.9c2.7 0 5 1 6.5 2.7a10 10 0 012.3 6.8l-.2 8.1-.2 12.1a1.7 1.7 0 01-3.4 0V53a1.3 1.3 0 000-.2l.2-8.6c0-2.2-.7-6-5.2-6-2.6 0-4.3 1.9-5 4a12.3 12.3 0 00-3.5-.8 9.4 9.4 0 012-3.8zm-11.5 15c0-3.3 1.5-6.1 4.2-7.6a9 9 0 014.4-1.2c1.8 0 3.5.5 5 1.4a10 10 0 014.7 9v5.6a20.6 20.6 0 00-2.2-1.1l-1.1-.6v-3.9c0-3.7-2-5.4-3.1-6.1a6.4 6.4 0 00-3.3-.9c-1 0-2 .2-2.8.7-1 .6-2.4 2-2.4 4.7 0 2.4 1 4 3 5.1v3.4a7.4 7.4 0 00-.8 0 36 36 0 01-.6-.3 8.6 8.6 0 01-5-8.2zm6.6-2.2v4.3c-.6-.5-.7-1.1-.7-2 0-1.3.3-2 .7-2.3zm-1.4 13.2a5.9 5.9 0 011 0 3 3 0 013 1.7L70 67h-3.6c-.5 0-.9.2-1.1.7-.3.5-.6 1.5-.6 2.7 0 1-.7 1.7-1.6 1.7a1.7 1.7 0 01-1.7-1.7c0-5.4 2.4-6.4 4.2-6.8zM53 72.7c-4.1.2-15 3-17.7 14.2-1.4-1.8-3.2-7.2-3.2-15.7s1.8-14 3.2-15.7c1 4.3 3.4 7.7 6.9 10.3 3.4 2.4 7.1 3.3 9 3.6H59l-.1 1c0 .9.3 1.7.7 2.3a329.4 329.4 0 00-4.3 0H53zm8.5 20.1a9 9 0 01-2.2-17.6l10.6.3a3.2 3.2 0 01-3.2 3h-3.5a5.3 5.3 0 00-5.3 5.3 5.3 5.3 0 005.3 5.3h.5l.6 3.7h-2.8zm1.7-6.2a2.8 2.8 0 01-2.8-2.8 2.8 2.8 0 011.4-2.3l1.4 5zm12 28.7a19 19 0 01-8.5-1.4c.4-3 .5-6.2.3-9 2.8 1 7 1 8.1 1 1.2 0 5.4 0 8.3-1-.2 3.6 0 5.5 0 7.3l.2 1.8c-.9.5-4 1.3-8.5 1.3zm11.7-24.2c-1.4 1.3-3 2.7-3.6 4-.8 1.7-.9 5.6-.8 7.5a25 25 0 01-7.4.9c-3.5 0-6-.5-7.3-1a96.3 96.3 0 00-3.6-21.4h2.5a5.7 5.7 0 003.8-1.5 5.7 5.7 0 002-4l12.2.1h.4c.6 2.4 2.4 5.7 6.2 6-.7.6-1.2 1.2-1.4 2-.2.3-.3 1-.5 2.1-.2 1.2-.5 3.2-.8 3.7-.1.3-1 1-1.7 1.6zm19.6 1.5H89a8 8 0 001.9-2l.3-1h14.1a6.9 6.9 0 000-13.7h-2.9l-.4.1a58 58 0 00-4.3 2l-.2.2c.4-.8.8-1.7 1-2.5h14.3v.1a9.6 9.6 0 013.3 7.2c0 5.3-4.3 9.6-9.6 9.6zM117.7 74l-1.1-.6a1.2 1.2 0 00-.6-.2H98.8c0-1 0-2.2-.3-3.6h1.5v1.8a1 1 0 002 0v-1.8h14l.6-.1 1-.5c.2.6.2 1.4.2 2.4a16.5 16.5 0 01-.2 2.6z"/>
    <circle cx="80.8" cy="108.6" r="1"/>
    <circle cx="80.8" cy="111.8" r="1"/>
  </g>
</svg>
